<?xml version="1.0" standalone="no"?><svg xmlns="http://www.w3.org/2000/svg" viewBox="0 0 1440 320"><path fill="#a2d9ff" fill-opacity="1" d="M0,288L13.3,272C26.7,256,53,224,80,224C106.7,224,133,256,160,266.7C186.7,277,213,267,240,266.7C266.7,267,293,277,320,277.3C346.7,277,373,267,400,272C426.7,277,453,299,480,266.7C506.7,235,533,149,560,149.3C586.7,149,613,235,640,277.3C666.7,320,693,320,720,314.7C746.7,309,773,299,800,266.7C826.7,235,853,181,880,149.3C906.7,117,933,107,960,106.7C986.7,107,1013,117,1040,138.7C1066.7,160,1093,192,1120,170.7C1146.7,149,1173,75,1200,53.3C1226.7,32,1253,64,1280,112C1306.7,160,1333,224,1360,256C1386.7,288,1413,288,1427,288L1440,288L1440,0L1426.7,0C1413.3,0,1387,0,1360,0C1333.3,0,1307,0,1280,0C1253.3,0,1227,0,1200,0C1173.3,0,1147,0,1120,0C1093.3,0,1067,0,1040,0C1013.3,0,987,0,960,0C933.3,0,907,0,880,0C853.3,0,827,0,800,0C773.3,0,747,0,720,0C693.3,0,667,0,640,0C613.3,0,587,0,560,0C533.3,0,507,0,480,0C453.3,0,427,0,400,0C373.3,0,347,0,320,0C293.3,0,267,0,240,0C213.3,0,187,0,160,0C133.3,0,107,0,80,0C53.3,0,27,0,13,0L0,0Z"></path></svg>