<?xml version="1.0" standalone="no"?><svg xmlns="http://www.w3.org/2000/svg" viewBox="0 0 1440 320"><path fill="#0099ff" fill-opacity="1" d="M0,256L26.7,229.3C53.3,203,107,149,160,144C213.3,139,267,181,320,213.3C373.3,245,427,267,480,229.3C533.3,192,587,96,640,80C693.3,64,747,128,800,181.3C853.3,235,907,277,960,250.7C1013.3,224,1067,128,1120,90.7C1173.3,53,1227,75,1280,74.7C1333.3,75,1387,53,1413,42.7L1440,32L1440,0L1413.3,0C1386.7,0,1333,0,1280,0C1226.7,0,1173,0,1120,0C1066.7,0,1013,0,960,0C906.7,0,853,0,800,0C746.7,0,693,0,640,0C586.7,0,533,0,480,0C426.7,0,373,0,320,0C266.7,0,213,0,160,0C106.7,0,53,0,27,0L0,0Z"></path></svg>