<?xml version="1.0" standalone="no"?><svg xmlns="http://www.w3.org/2000/svg" viewBox="0 0 1440 320"><path fill="#0099ff" fill-opacity="1" d="M0,256L26.7,229.3C53.3,203,107,149,160,144C213.3,139,267,181,320,213.3C373.3,245,427,267,480,229.3C533.3,192,587,96,640,80C693.3,64,747,128,800,181.3C853.3,235,907,277,960,250.7C1013.3,224,1067,128,1120,90.7C1173.3,53,1227,75,1280,74.7C1333.3,75,1387,53,1413,42.7L1440,32L1440,320L1413.3,320C1386.7,320,1333,320,1280,320C1226.7,320,1173,320,1120,320C1066.7,320,1013,320,960,320C906.7,320,853,320,800,320C746.7,320,693,320,640,320C586.7,320,533,320,480,320C426.7,320,373,320,320,320C266.7,320,213,320,160,320C106.7,320,53,320,27,320L0,320Z"></path></svg>