<?xml version="1.0" standalone="no"?><svg xmlns="http://www.w3.org/2000/svg" viewBox="0 0 1440 320"><path fill="#a2d9ff" fill-opacity="1" d="M0,0L24,42.7C48,85,96,171,144,192C192,213,240,171,288,128C336,85,384,43,432,64C480,85,528,171,576,218.7C624,267,672,277,720,245.3C768,213,816,139,864,90.7C912,43,960,21,1008,26.7C1056,32,1104,64,1152,69.3C1200,75,1248,53,1296,74.7C1344,96,1392,160,1416,192L1440,224L1440,320L1416,320C1392,320,1344,320,1296,320C1248,320,1200,320,1152,320C1104,320,1056,320,1008,320C960,320,912,320,864,320C816,320,768,320,720,320C672,320,624,320,576,320C528,320,480,320,432,320C384,320,336,320,288,320C240,320,192,320,144,320C96,320,48,320,24,320L0,320Z"></path></svg>